<?xml version="1.0" encoding="UTF-8"?>
<svg width="16px" height="15px" viewBox="0 0 16 15" version="1.1" xmlns="http://www.w3.org/2000/svg" xmlns:xlink="http://www.w3.org/1999/xlink">
    <g id="Page-1" stroke="none" stroke-width="1" fill="none" fill-rule="evenodd">
        <path d="M12,4.5 C12,4.22385763 11.7761424,4 11.5,4 L4,4 C3.44771525,4 3,3.55228475 3,3 L3,2 C3,1.44771525 3.44771525,1 4,1 L8.5,1 C8.77614237,1 9,0.776142375 9,0.5 L9,0 L10,0 L10,1 C10,1.55228475 9.55228475,2 9,2 L4.5,2 C4.22385763,2 4,2.22385763 4,2.5 C4,2.77614237 4.22385763,3 4.5,3 L12,3 C12.5522847,3 13,3.44771525 13,4 L13,5 L15,5 C15.5522847,5 16,5.44771525 16,6 L16,14 C16,14.5522847 15.5522847,15 15,15 L1,15 C0.44771525,15 6.76353751e-17,14.5522847 0,14 L0,6 C-6.76353751e-17,5.44771525 0.44771525,5 1,5 L12,5 L12,4.5 Z M12.75,12 L6.25,12 C6.13165327,12 6.03251318,12.0822334 6.00660268,12.1926773 L6,12.25 L6,13.75 C6,13.8683467 6.08223341,13.9674868 6.19267729,13.9933973 L6.25,14 L12.75,14 C12.8683467,14 12.9674868,13.9177666 12.9933973,13.8073227 L13,13.75 L13,12.25 C13,12.1119288 12.8880712,12 12.75,12 Z M4.75,12 L3.25,12 C3.13165327,12 3.03251318,12.0822334 3.00660268,12.1926773 L3,12.25 L3,13.75 C3,13.8683467 3.08223341,13.9674868 3.19267729,13.9933973 L3.25,14 L4.75,14 C4.86834673,14 4.96748682,13.9177666 4.99339732,13.8073227 L5,13.75 L5,12.25 C5,12.1119288 4.88807119,12 4.75,12 Z M3.75,9 L2.25,9 C2.13165327,9 2.03251318,9.08223341 2.00660268,9.19267729 L2,9.25 L2,10.75 C2,10.8683467 2.08223341,10.9674868 2.19267729,10.9933973 L2.25,11 L3.75,11 C3.86834673,11 3.96748682,10.9177666 3.99339732,10.8073227 L4,10.75 L4,9.25 C4,9.11192881 3.88807119,9 3.75,9 Z M6.75,9 L5.25,9 C5.13165327,9 5.03251318,9.08223341 5.00660268,9.19267729 L5,9.25 L5,10.75 C5,10.8683467 5.08223341,10.9674868 5.19267729,10.9933973 L5.25,11 L6.75,11 C6.86834673,11 6.96748682,10.9177666 6.99339732,10.8073227 L7,10.75 L7,9.25 C7,9.11192881 6.88807119,9 6.75,9 Z M9.75,9 L8.25,9 C8.13165327,9 8.03251318,9.08223341 8.00660268,9.19267729 L8,9.25 L8,10.75 C8,10.8683467 8.08223341,10.9674868 8.19267729,10.9933973 L8.25,11 L9.75,11 C9.86834673,11 9.96748682,10.9177666 9.99339732,10.8073227 L10,10.75 L10,9.25 C10,9.11192881 9.88807119,9 9.75,9 Z M13.75,9 L11.25,9 C11.1316533,9 11.0325132,9.08223341 11.0066027,9.19267729 L11,9.25 L11,10.75 C11,10.8683467 11.0822334,10.9674868 11.1926773,10.9933973 L11.25,11 L13.75,11 C13.8683467,11 13.9674868,10.9177666 13.9933973,10.8073227 L14,10.75 L14,9.25 C14,9.11192881 13.8880712,9 13.75,9 Z M2.75,6 L1.25,6 C1.13165327,6 1.03251318,6.08223341 1.00660268,6.19267729 L1,6.25 L1,7.75 C1,7.86834673 1.08223341,7.96748682 1.19267729,7.99339732 L1.25,8 L2.75,8 C2.86834673,8 2.96748682,7.91776659 2.99339732,7.80732271 L3,7.75 L3,6.25 C3,6.11192881 2.88807119,6 2.75,6 Z M5.75,6 L4.25,6 C4.13165327,6 4.03251318,6.08223341 4.00660268,6.19267729 L4,6.25 L4,7.75 C4,7.86834673 4.08223341,7.96748682 4.19267729,7.99339732 L4.25,8 L5.75,8 C5.86834673,8 5.96748682,7.91776659 5.99339732,7.80732271 L6,7.75 L6,6.25 C6,6.11192881 5.88807119,6 5.75,6 Z M8.75,6 L7.25,6 C7.13165327,6 7.03251318,6.08223341 7.00660268,6.19267729 L7,6.25 L7,7.75 C7,7.86834673 7.08223341,7.96748682 7.19267729,7.99339732 L7.25,8 L8.75,8 C8.86834673,8 8.96748682,7.91776659 8.99339732,7.80732271 L9,7.75 L9,6.25 C9,6.11192881 8.88807119,6 8.75,6 Z M11.75,6 L10.25,6 C10.1316533,6 10.0325132,6.08223341 10.0066027,6.19267729 L10,6.25 L10,7.75 C10,7.86834673 10.0822334,7.96748682 10.1926773,7.99339732 L10.25,8 L11.75,8 C11.8683467,8 11.9674868,7.91776659 11.9933973,7.80732271 L12,7.75 L12,6.25 C12,6.11192881 11.8880712,6 11.75,6 Z M14.75,6 L13.25,6 C13.1316533,6 13.0325132,6.08223341 13.0066027,6.19267729 L13,6.25 L13,7.75 C13,7.86834673 13.0822334,7.96748682 13.1926773,7.99339732 L13.25,8 L14.75,8 C14.8683467,8 14.9674868,7.91776659 14.9933973,7.80732271 L15,7.75 L15,6.25 C15,6.11192881 14.8880712,6 14.75,6 Z" id="keyboard" fill="#FFFFFF"></path>
    </g>
</svg>