<?xml version="1.0" encoding="UTF-8"?>
<svg width="16px" height="16px" viewBox="0 0 16 16" version="1.1" xmlns="http://www.w3.org/2000/svg" xmlns:xlink="http://www.w3.org/1999/xlink">
    <g id="Page-1" stroke="none" stroke-width="1" fill="none" fill-rule="evenodd">
        <g fill="#ffe066" fill-rule="nonzero">
            <path d="M15.92,10.1372021 C14.776925,14.090887 10.7633378,16.5370219 6.65884646,15.7815369 C2.55435516,15.026052 -0.290337097,11.3175617 0.0948601165,7.22437952 C0.48005733,3.13119731 3.96838358,0.000304678964 8.144,-1.76715292e-15 C8.31831579,-1.76715292e-15 8.50273684,-1.76715292e-15 8.72,0.0223834197 C8.91283132,0.0349161201 9.08151067,0.154631913 9.15452632,0.330777202 C9.22703123,0.507369019 9.19073344,0.709215398 9.06105263,0.850569948 C7.34287359,2.73598743 7.17174054,5.5386071 8.6481219,7.61307316 C10.1245033,9.68753921 12.8586784,10.4862545 15.2454737,9.54031088 C15.4242431,9.46962242 15.6282881,9.50516518 15.7715645,9.63195107 C15.9148409,9.75873697 15.9724118,9.95469916 15.92,10.1372021 L15.92,10.1372021 Z" id="Path"></path>
        </g>
    </g>
</svg>