<?xml version="1.0" encoding="UTF-8"?>
<svg width="131px" height="270px" viewBox="0 0 131 270" version="1.1" xmlns="http://www.w3.org/2000/svg" xmlns:xlink="http://www.w3.org/1999/xlink">
    <g id="Page-1" stroke="none" stroke-width="1" fill="none" fill-rule="evenodd">
        <g id="pineapple" fill-rule="nonzero">
            <path d="M65.2799592,100.05 C67.5749592,100.05 69.9779592,100.2 72.4739592,100.5 L73.2239592,100.5 C77.0279592,101.1 80.3249592,101.85 83.1269592,102.75 C88.4249592,104.25 93.5279592,106.599 98.4269592,109.8 C102.128959,112.2 105.374959,114.951 108.176959,118.05 C110.075959,119.85 112.124959,122.25 114.329959,125.25 C115.523959,126.651 116.579959,128.052 117.476959,129.45 C120.278959,134.052 122.276959,138.651 123.476959,143.25 C124.676959,147.051 125.480959,150.75 125.879959,154.35 L126.026959,163.05 C125.828959,162.849 125.381959,162.75 124.679959,162.75 L124.526959,162.75 C123.728959,162.75 122.978959,162.999 122.276959,163.5 L112.679959,173.1 C112.181959,173.7 111.929959,174.498 111.929959,175.5 C111.929959,176.301 112.181959,177 112.679959,177.6 C113.276959,178.101 114.026959,178.35 114.929959,178.35 C115.733959,178.35 116.483959,178.101 117.179959,177.6 L124.526959,169.95 L126.026959,171.6 L126.026959,209.1 C126.026959,214.8 125.480959,219.9 124.379959,224.4 L123.179959,228 C121.679959,233.199 119.231959,238.2 115.832959,243 L112.979959,246.75 C111.380959,249.051 109.781959,250.851 108.179959,252.15 C102.179959,258.048 95.7809592,262.5 88.9799592,265.5 L88.5299592,265.65 C81.7319592,268.548 73.9799592,270 65.2799592,270 C48.1829592,270 33.7319592,264.051 21.9329592,252.15 C9.93295917,240.15 3.93295917,225.798 3.93295917,209.1 L3.93295917,171.6 L5.73295917,169.95 L13.2329592,177.6 C13.9349592,178.101 14.6849592,178.35 15.4829592,178.35 C16.2869592,178.35 16.9829592,178.101 17.5859592,177.6 C18.0839592,177 18.3359592,176.298 18.3359592,175.5 C18.3359592,174.501 18.0839592,173.7 17.5859592,173.1 L7.98295917,163.5 C6.68095917,162.399 5.33395917,162.3 3.93295917,163.2 L3.93295917,161.25 C3.93295917,144.45 9.93295917,130.05 21.9329592,118.05 C33.8339592,106.05 48.2819592,100.05 65.2799592,100.05 Z M64.5209592,219.9 C63.6239592,219.9 62.8739592,220.149 62.2709592,220.65 L52.5209592,230.4 C52.0229592,231 51.7709592,231.75 51.7709592,232.65 C51.7709592,233.451 52.0229592,234.15 52.5209592,234.75 C53.1239592,235.35 53.9219592,235.65 54.9239592,235.65 C55.6259592,235.65 56.2709592,235.35 56.8739592,234.75 L64.5209592,227.1 L71.8739592,234.75 C72.4709592,235.251 73.2209592,235.5 74.1239592,235.5 C74.9219592,235.5 75.6719592,235.251 76.3739592,234.75 C76.8719592,234.15 77.1239592,233.451 77.1239592,232.65 C77.1239592,231.75 76.8719592,231 76.3739592,230.4 L66.6239592,220.65 C66.0209592,220.149 65.3219592,219.9 64.5209592,219.9 Z M35.1239592,191.1 C34.1219592,191.1 33.3239592,191.349 32.7209592,191.85 L23.1239592,201.45 C22.6259592,202.149 22.3739592,202.95 22.3739592,203.85 C22.3739592,204.651 22.6259592,205.35 23.1239592,205.95 C23.7239592,206.451 24.4739592,206.7 25.3739592,206.7 C26.1719592,206.7 26.9219592,206.451 27.6239592,205.95 L35.1239592,198.3 L42.4709592,205.95 C43.0739592,206.55 43.8239592,206.85 44.7209592,206.85 C45.5249592,206.85 46.2209592,206.55 46.8239592,205.95 C47.3219592,205.35 47.5739592,204.651 47.5739592,203.85 C47.5739592,202.95 47.3219592,202.149 46.8239592,201.45 L37.2209592,191.85 C36.6239592,191.349 35.9219592,191.1 35.1239592,191.1 Z M92.1239592,191.1 C91.2209592,191.1 90.4709592,191.349 89.8739592,191.85 L80.1239592,201.45 C79.6259592,202.149 79.3739592,202.95 79.3739592,203.85 C79.3739592,204.651 79.6259592,205.35 80.1239592,205.95 C80.7209592,206.451 81.4259592,206.7 82.2209592,206.7 C83.1239592,206.7 83.8739592,206.451 84.4709592,205.95 L91.9709592,198.3 L99.4709592,205.95 C100.073959,206.55 100.823959,206.85 101.720959,206.85 C102.623959,206.85 103.373959,206.55 103.970959,205.95 C104.474959,205.35 104.720959,204.651 104.720959,203.85 C104.720959,202.95 104.474959,202.149 103.970959,201.45 L94.2209592,191.85 C93.6239592,191.349 92.9219592,191.1 92.1239592,191.1 Z M64.0769592,162.75 C63.1739592,162.75 62.4239592,162.999 61.8269592,163.5 L52.6739592,172.5 C52.1759592,173.1 51.9239592,173.85 51.9239592,174.75 C51.9239592,175.65 52.1759592,176.4 52.6739592,177 C53.2709592,177.501 54.0749592,177.75 55.0769592,177.75 C55.7729592,177.75 56.4239592,177.501 57.0209592,177 L63.9239592,169.95 L71.4239592,177.6 C72.0209592,178.2 72.7709592,178.5 73.6739592,178.5 C74.4779592,178.5 75.2279592,178.2 75.9239592,177.6 C76.4219592,177 76.6739592,176.298 76.6739592,175.5 C76.6739592,174.501 76.4219592,173.7 75.9239592,173.1 L66.1739592,163.5 C65.5769592,162.999 64.8719592,162.75 64.0769592,162.75 Z M92.1239592,128.85 C91.2209592,128.85 90.4709592,129.099 89.8739592,129.6 L80.1239592,139.2 C79.6259592,139.8 79.3739592,140.601 79.3739592,141.6 C79.3739592,142.401 79.6259592,143.1 80.1239592,143.7 C80.7209592,144.201 81.4259592,144.45 82.2209592,144.45 C83.1239592,144.45 83.8739592,144.201 84.4709592,143.7 L91.9709592,136.2 L99.4709592,143.7 C100.073959,144.3 100.823959,144.6 101.720959,144.6 C102.623959,144.6 103.373959,144.3 103.970959,143.7 C104.474959,143.1 104.720959,142.401 104.720959,141.6 C104.720959,140.601 104.474959,139.8 103.970959,139.2 L94.2209592,129.6 C93.6239592,129.099 92.9219592,128.85 92.1239592,128.85 Z M35.1269592,128.85 C34.1249592,128.85 33.3269592,129.099 32.7239592,129.6 L23.1239592,139.2 C22.6259592,139.8 22.3739592,140.601 22.3739592,141.6 C22.3739592,142.401 22.6259592,143.1 23.1239592,143.7 C23.7209592,144.201 24.4709592,144.45 25.3739592,144.45 C26.1719592,144.45 26.9219592,144.201 27.6239592,143.7 L35.1239592,136.2 L42.4709592,143.7 C43.0739592,144.3 43.8239592,144.6 44.7209592,144.6 C45.5249592,144.6 46.2209592,144.3 46.8239592,143.7 C47.3219592,143.1 47.5739592,142.401 47.5739592,141.6 C47.5739592,140.601 47.3219592,139.8 46.8239592,139.2 L37.2239592,129.6 C36.6269592,129.099 35.9219592,128.85 35.1269592,128.85 Z" id="Shape" fill="#FFE066"></path>
            <path d="M99.9239592,16.95 C93.1259592,24.75 87.3269592,33.099 82.5209592,42 L81.6239592,43.35 C77.0249592,52.251 73.5209592,60.75 71.1239592,68.85 L68.2709592,80.85 C69.6719592,78.75 70.7249592,77.151 71.4239592,76.05 L72.7709592,74.1 C74.1719592,71.901 75.7229592,69.9 77.4239592,68.1 C78.6239592,66.3 79.9259592,64.749 81.3269592,63.45 L85.5209592,58.65 C87.1259592,56.85 89.1719592,54.9 91.6739592,52.8 L99.4739592,46.05 L100.673959,45.3 C102.074959,44.199 103.175959,43.449 103.973959,43.05 L113.576959,36.45 C114.272959,36.15 115.022959,36.051 115.826959,36.15 C116.723959,36.249 117.374959,36.651 117.770959,37.35 C118.274959,38.049 118.421959,38.799 118.220959,39.6 C118.022959,40.5 117.569959,41.151 116.873959,41.55 L97.0739592,56.1 L95.5739592,57.45 C92.8739592,59.949 91.0199592,61.752 90.0179592,62.85 L85.8239592,67.5 C84.2249592,69.099 82.9229592,70.599 81.9209592,72 C80.6189592,73.5 79.2719592,75.3 77.8709592,77.4 L77.7239592,77.7 L76.6739592,79.2 C74.2709592,82.5 72.1739592,85.851 70.3739592,89.25 C75.4709592,85.65 80.6759592,82.599 85.9709592,80.1 L102.770959,74.1 L107.576959,72.9 C109.274959,72.399 111.128959,72.048 113.126959,71.85 C117.527959,70.95 122.324959,70.35 127.523959,70.05 C128.327959,69.951 129.077959,70.149 129.773959,70.65 C130.475959,71.25 130.829959,71.949 130.829959,72.75 C130.928959,73.65 130.676959,74.451 130.079959,75.15 C129.476959,75.75 128.777959,76.05 127.976959,76.05 C123.077959,76.551 118.424959,77.151 114.026959,77.85 L108.923959,78.9 L108.623959,78.9 L106.970959,79.35 L106.520959,79.35 L99.9239592,81.15 L88.5209592,85.65 C83.3249592,88.149 78.6239592,90.801 74.4239592,93.6 C74.1239592,93.798 73.7729592,94.101 73.3739592,94.5 C67.9709592,93.801 62.5739592,93.801 57.1739592,94.5 C56.7749592,94.101 56.4239592,93.801 56.1239592,93.6 C39.5249592,82.8 21.7229592,77.049 2.72095917,76.35 C2.02495917,76.35 1.37395917,76.05 0.770959167,75.45 C0.173959167,74.85 -0.0780408333,74.1 0.0209591667,73.2 C0.0209591667,72.399 0.326959167,71.7 0.923959167,71.1 C1.42195917,70.5 2.07295917,70.251 2.87395917,70.35 C23.4749592,71.151 42.4709592,77.4 59.8739592,89.1 C58.3739592,86.1 56.4749592,82.998 54.1739592,79.8 L54.0209592,79.5 L53.2709592,78.45 C43.0769592,63.849 29.7749592,51.6 13.3739592,41.7 C11.7749592,40.701 11.4239592,39.252 12.3239592,37.35 C13.5179592,35.85 14.9189592,35.499 16.5179592,36.3 C33.8219592,46.899 47.6729592,59.751 58.0739592,74.85 L62.2679592,80.85 L62.2679592,80.4 L59.8739592,72 C54.3719592,51.6 44.5229592,33.249 30.3239592,16.95 C29.1239592,15.45 29.2229592,13.95 30.6239592,12.45 C32.1239592,11.25 33.6239592,11.349 35.1239592,12.75 C46.9259592,26.751 55.9709592,42.15 62.2709592,58.95 L62.2709592,3 C62.2709592,0.999 63.2729592,0 65.2709592,0 C67.2749592,0 68.2709592,0.999 68.2709592,3 L68.2709592,58.5 C70.3739592,52.8 73.0769592,46.851 76.3739592,40.65 L77.4239592,38.85 C82.0229592,30.048 87.9779592,21.351 95.2709592,12.75 C96.6719592,11.349 98.1239592,11.25 99.6239592,12.45 C101.024959,13.95 101.123959,15.45 99.9239592,16.95 Z" id="Path" fill="#69DB7C"></path>
        </g>
    </g>
</svg>